<?xml version="1.0" encoding="UTF-8" standalone="no"?>
<!-- Created with Inkscape (http://www.inkscape.org/) -->

<svg
   xmlns:dc="http://purl.org/dc/elements/1.1/"
   xmlns:cc="http://creativecommons.org/ns#"
   xmlns:rdf="http://www.w3.org/1999/02/22-rdf-syntax-ns#"
   xmlns:svg="http://www.w3.org/2000/svg"
   xmlns="http://www.w3.org/2000/svg"
   xmlns:sodipodi="http://sodipodi.sourceforge.net/DTD/sodipodi-0.dtd"
   xmlns:inkscape="http://www.inkscape.org/namespaces/inkscape"
   version="1.1"
   width="16"
   height="16"
   id="svg3808"
   inkscape:version="0.48.3.1 r9886"
   sodipodi:docname="view-fullscreen-symbolic.svg">
  <sodipodi:namedview
     pagecolor="#ffffff"
     bordercolor="#666666"
     borderopacity="1"
     objecttolerance="10"
     gridtolerance="10"
     guidetolerance="10"
     inkscape:pageopacity="0"
     inkscape:pageshadow="2"
     inkscape:window-width="1440"
     inkscape:window-height="856"
     id="namedview3042"
     showgrid="false"
     inkscape:zoom="20.85965"
     inkscape:cx="-1.1821777"
     inkscape:cy="8.2379436"
     inkscape:window-x="0"
     inkscape:window-y="22"
     inkscape:window-maximized="1"
     inkscape:current-layer="svg3808" />
  <defs
     id="defs3810" />
  <metadata
     id="metadata3813">
    <rdf:RDF>
      <cc:Work
         rdf:about="">
        <dc:format>image/svg+xml</dc:format>
        <dc:type
           rdf:resource="http://purl.org/dc/dcmitype/StillImage" />
        <dc:title />
      </cc:Work>
    </rdf:RDF>
  </metadata>
  <g
     id="layer1"
     style="fill:#ffffff;fill-opacity:1;stroke:#999999;stroke-opacity:1;stroke-width:0.07000000000000001;stroke-miterlimit:4;stroke-dasharray:none"
     transform="matrix(0.71428571,0,0,0.71428571,2.2857143,2.2857144)">
    <path
       d="m 8,1 2.625,2.59375 -2,2 C 8.60998,5.60877 8.607846,5.60943 8.59375,5.625 8.1497304,6.115672 8.1518649,6.870614 8.625,7.34375 c 0.4729002,0.4729 1.228059,0.505848 1.71875,0.0625 l 0.25,-0.25 L 12.40625,5.375 15,8 15,1 z m -7,7 0,7 7,0 -2.625,-2.625 2,-2 C 7.39002,10.35998 7.392154,10.35932 7.40625,10.34375 7.8502666,9.8530771 7.8481351,9.0981352 7.375,8.625 6.9020995,8.1520995 6.1156905,8.1191556 5.625,8.5625 l -0.21875,0.25 -1.8125,1.8125 z"
       inkscape:connector-curvature="0"
       id="path3288-51-5"
       style="color:#bebebe;fill:#ffffff;fill-opacity:1;fill-rule:nonzero;stroke:#999999;stroke-width:0.07000000000000001;marker:none;visibility:visible;display:inline;overflow:visible;enable-background:accumulate;stroke-opacity:1;stroke-miterlimit:4;stroke-dasharray:none" />
  </g>
</svg>
